<?xml version="1.0" encoding="UTF-8" standalone="no"?>
<!-- Created with Inkscape (http://www.inkscape.org/) -->

<svg
   width="100mm"
   height="100mm"
   viewBox="0 0 99.999999 99.999999"
   version="1.1"
   id="svg1"
   inkscape:version="1.3 (0e150ed6c4, 2023-07-21)"
   sodipodi:docname="vr.svg"
   xmlns:inkscape="http://www.inkscape.org/namespaces/inkscape"
   xmlns:sodipodi="http://sodipodi.sourceforge.net/DTD/sodipodi-0.dtd"
   xmlns="http://www.w3.org/2000/svg"
   xmlns:svg="http://www.w3.org/2000/svg">
  <sodipodi:namedview
     id="namedview1"
     pagecolor="#ffffff"
     bordercolor="#111111"
     borderopacity="1"
     inkscape:showpageshadow="0"
     inkscape:pageopacity="0"
     inkscape:pagecheckerboard="1"
     inkscape:deskcolor="#d1d1d1"
     inkscape:document-units="mm"
     inkscape:zoom="3.2409231"
     inkscape:cx="177.41859"
     inkscape:cy="245.45476"
     inkscape:current-layer="layer1" />
  <defs
     id="defs1">
    <clipPath
       clipPathUnits="userSpaceOnUse"
       id="clipPath2">
      <path
         d="M 0,1080 H 1920 V 0 H 0 Z"
         transform="translate(-1470,-539.50001)"
         id="path2" />
    </clipPath>
    <clipPath
       clipPathUnits="userSpaceOnUse"
       id="clipPath4">
      <path
         d="M 0,1080 H 1920 V 0 H 0 Z"
         transform="translate(-1346.8146,-369.26071)"
         id="path4" />
    </clipPath>
    <clipPath
       clipPathUnits="userSpaceOnUse"
       id="clipPath6">
      <path
         d="M 0,1080 H 1920 V 0 H 0 Z"
         transform="translate(-791.83202,-540.08542)"
         id="path6" />
    </clipPath>
    <clipPath
       clipPathUnits="userSpaceOnUse"
       id="clipPath8">
      <path
         d="M 0,1080 H 1920 V 0 H 0 Z"
         transform="translate(-1297.8243,-535.08502)"
         id="path8" />
    </clipPath>
    <clipPath
       clipPathUnits="userSpaceOnUse"
       id="clipPath10">
      <path
         d="M 0,1080 H 1920 V 0 H 0 Z"
         transform="translate(-501.50002,-452.75981)"
         id="path10" />
    </clipPath>
    <clipPath
       clipPathUnits="userSpaceOnUse"
       id="clipPath12">
      <path
         d="M 0,1080 H 1920 V 0 H 0 Z"
         transform="translate(-1344.0108,-447.36041)"
         id="path12" />
    </clipPath>
    <clipPath
       clipPathUnits="userSpaceOnUse"
       id="clipPath14">
      <path
         d="M 0,1080 H 1920 V 0 H 0 Z"
         transform="translate(-754.30419,-700.00002)"
         id="path14" />
    </clipPath>
    <clipPath
       clipPathUnits="userSpaceOnUse"
       id="clipPath16">
      <path
         d="M 0,1080 H 1920 V 0 H 0 Z"
         transform="translate(-595.50001,-700.00002)"
         id="path16" />
    </clipPath>
  </defs>
  <g
     inkscape:label="Ebene 1"
     inkscape:groupmode="layer"
     id="layer1"
     transform="translate(87.312494,70.643747)">
    <path
       id="path1"
       d="m 0,0 c 0,-294.092 -238.408,-532.5 -532.5,-532.5 -294.092,0 -532.5,238.408 -532.5,532.5 0,294.092 238.408,532.5 532.5,532.5 C -238.408,532.5 0,294.092 0,0"
       style="fill:#5e2cdb icc-color(sRGB-IEC61966-2, 0.1, 0.36898804, 0.17298889, 0.85899353);fill-opacity:1;fill-rule:nonzero;stroke:none"
       transform="matrix(0.09389672,0,0,-0.09389672,12.687507,-20.643747)"
       clip-path="url(#clipPath2)" />
    <path
       id="path3"
       d="m 0,0 c 0,-19.813 -16.062,-35.876 -35.876,-35.876 h -265.226 c -33.951,0 -67.902,178.462 -101.853,178.462 -33.413,0 -66.826,-178.462 -100.238,-178.462 h -266.46 c -19.814,0 -35.876,16.063 -35.876,35.876 v 327.863 c 0,19.814 16.062,35.876 35.876,35.876 H -35.876 C -16.062,363.739 0,347.677 0,327.863 Z"
       style="fill:#48ccd3 icc-color(sRGB-IEC61966-2, 0.1, 0.28199768, 0.79998779, 0.82699585);fill-opacity:1;fill-rule:nonzero;stroke:none"
       transform="matrix(0.09389672,0,0,-0.09389672,1.1207943,-4.6588353)"
       clip-path="url(#clipPath4)" />
    <path
       id="path5"
       d="m 0,0 c 0,-55.852 -45.277,-101.128 -101.128,-101.128 -55.852,0 -101.129,45.276 -101.129,101.128 0,55.852 45.277,101.128 101.129,101.128 C -45.277,101.128 0,55.852 0,0"
       style="fill:#ffffff icc-color(sRGB-IEC61966-2, 0.1, 1, 1, 1);fill-opacity:1;fill-rule:nonzero;stroke:none"
       transform="matrix(0.09389672,0,0,-0.09389672,-50.990244,-20.698715)"
       clip-path="url(#clipPath6)" />
    <path
       id="path7"
       d="m 0,0 c 0,-55.852 -45.276,-101.128 -101.128,-101.128 -55.851,0 -101.129,45.276 -101.129,101.128 0,55.852 45.278,101.129 101.129,101.129 C -45.276,101.129 0,55.852 0,0"
       style="fill:#ffffff icc-color(sRGB-IEC61966-2, 0.1, 1, 1, 1);fill-opacity:1;fill-rule:nonzero;stroke:none"
       transform="matrix(0.09389672,0,0,-0.09389672,-3.4792344,-20.229194)"
       clip-path="url(#clipPath8)" />
    <path
       id="path9"
       d="M 0,0 H 40.489 V 149.069 H 0 c -6.6,0 -12,-5.401 -12,-12 V 12 C -12,5.4 -6.6,0 0,0"
       style="fill:#48ccd3 icc-color(sRGB-IEC61966-2, 0.1, 0.28199768, 0.79998779, 0.82699585);fill-opacity:1;fill-rule:nonzero;stroke:none"
       transform="matrix(0.09389672,0,0,-0.09389672,-78.251466,-12.499128)"
       clip-path="url(#clipPath10)" />
    <path
       id="path11"
       d="m 0,0 h 40.489 c 6.6,0 12,5.4 12,12 v 125.068 c 0,6.6 -5.4,12 -12,12 H 0 Z"
       style="fill:#48ccd3 icc-color(sRGB-IEC61966-2, 0.1, 0.28199768, 0.79998779, 0.82699585);fill-opacity:1;fill-rule:nonzero;stroke:none"
       transform="matrix(0.09389672,0,0,-0.09389672,0.85752626,-11.992141)"
       clip-path="url(#clipPath12)" />
  </g>
</svg>
